<?xml version="1.0" standalone="no"?>
<!DOCTYPE svg PUBLIC "-//W3C//DTD SVG 20010904//EN"
 "http://www.w3.org/TR/2001/REC-SVG-20010904/DTD/svg10.dtd">
<svg version="1.0" xmlns="http://www.w3.org/2000/svg"
 width="1024.000000pt" height="1024.000000pt" viewBox="0 0 1024.000000 1024.000000"
 preserveAspectRatio="xMidYMid meet">
<metadata>
Created by potrace 1.11, written by Peter Selinger 2001-2013
</metadata>
<g transform="translate(0.000000,1024.000000) scale(0.100000,-0.100000)"
fill="#000000" stroke="none">
<path d="M4464 10112 c-38 -32 -170 -164 -294 -292 -391 -404 -501 -510 -529
-510 -12 0 -68 29 -201 103 -31 17 -341 198 -408 238 -198 118 -621 367 -632
372 -8 4 -31 17 -50 28 -19 12 -59 35 -89 50 -50 27 -56 28 -64 13 -9 -16 -3
-251 7 -314 3 -14 7 -70 11 -125 3 -55 8 -118 10 -140 2 -22 7 -76 10 -120 3
-44 8 -96 10 -115 2 -19 6 -80 10 -135 3 -55 8 -111 10 -125 6 -39 18 -261 16
-295 -5 -95 -85 -237 -227 -400 -79 -92 -118 -133 -348 -365 -264 -268 -318
-344 -346 -487 -6 -32 -13 -168 -16 -303 -5 -303 -12 -494 -19 -540 -11 -63
-66 -231 -116 -354 -81 -197 -204 -417 -407 -726 -52 -80 -116 -176 -141 -215
-25 -38 -49 -71 -53 -73 -5 -2 -8 -8 -8 -12 0 -5 -43 -75 -96 -156 -146 -224
-242 -387 -301 -511 -29 -62 -53 -115 -53 -117 0 -3 -5 -17 -12 -33 -6 -15
-12 -32 -14 -38 -2 -5 -15 -44 -29 -85 -14 -41 -27 -84 -29 -95 -2 -11 -11
-49 -20 -85 -30 -120 -43 -243 -40 -380 3 -172 11 -218 55 -339 97 -264 268
-452 522 -571 94 -43 208 -82 282 -95 17 -2 39 -7 50 -9 19 -4 78 -10 200 -21
66 -6 95 -28 95 -71 0 -46 43 -154 77 -193 19 -23 62 -54 99 -72 56 -28 76
-33 134 -32 120 2 242 50 361 145 158 125 264 276 484 693 282 534 435 714
815 960 52 34 115 73 140 87 25 14 73 42 107 62 34 20 64 36 67 36 3 0 27 13
53 28 27 16 120 66 208 112 88 45 174 90 190 100 17 9 80 43 140 75 61 32 122
66 137 76 14 11 29 19 33 19 4 0 84 46 178 103 95 56 176 104 180 105 4 2 85
55 178 118 99 67 180 114 194 114 20 0 26 -7 36 -42 12 -45 13 -51 23 -137 16
-125 22 -476 11 -596 -2 -27 -7 -79 -10 -115 -3 -36 -8 -72 -10 -80 -2 -8 -6
-35 -9 -60 -3 -25 -8 -55 -10 -66 -2 -12 -7 -39 -10 -60 -34 -213 -162 -567
-299 -827 -79 -149 -93 -173 -159 -272 -132 -196 -231 -306 -673 -751 -400
-402 -510 -520 -620 -657 -16 -21 -38 -48 -48 -60 -89 -107 -202 -321 -261
-497 -68 -203 -78 -274 -77 -560 1 -237 5 -288 22 -305 8 -7 43 -17 79 -22 69
-8 6659 -12 7035 -3 l219 5 -2 220 c-2 243 -12 639 -17 725 -2 30 -7 107 -10
170 -3 63 -8 131 -10 150 -2 19 -7 78 -10 130 -7 99 -8 114 -19 220 -4 36 -9
85 -11 110 -17 169 -33 312 -45 410 -6 41 -12 93 -15 115 -2 22 -7 56 -10 75
-2 19 -7 55 -10 80 -3 25 -10 72 -15 105 -5 33 -12 80 -15 105 -3 25 -10 70
-15 100 -5 30 -12 73 -15 95 -5 40 -60 367 -69 415 -3 14 -7 37 -10 53 -3 15
-10 54 -16 87 -6 33 -13 72 -16 87 -12 65 -86 427 -108 528 -48 223 -58 264
-110 475 -121 485 -195 744 -328 1145 -46 142 -116 342 -128 370 -5 11 -38 94
-73 185 -36 91 -93 228 -127 305 -71 158 -245 502 -266 526 -8 8 -14 19 -14
22 0 12 -131 217 -208 327 -239 338 -526 642 -822 871 -234 181 -486 329 -730
429 -58 23 -114 46 -125 51 -99 42 -390 124 -510 144 -16 3 -41 8 -55 10 -130
26 -723 38 -1027 21 l-132 -8 -19 39 c-11 21 -88 188 -171 371 -84 184 -156
341 -161 350 -4 10 -54 110 -110 224 -56 113 -110 214 -120 223 -17 15 -22 13
-86 -43z"/>
</g>
</svg>
